<?xml version="1.0" standalone="no"?>
<!DOCTYPE svg PUBLIC "-//W3C//DTD SVG 20010904//EN"
 "http://www.w3.org/TR/2001/REC-SVG-20010904/DTD/svg10.dtd">
<!--noinspection ALL-->
<!--suppress XmlDefaultAttributeValue -->
<svg version="1.0" xmlns="http://www.w3.org/2000/svg"
 width="700.000000pt" height="700.000000pt" viewBox="0 0 700.000000 700.000000"
 preserveAspectRatio="xMidYMid meet">
<metadata>
Created by potrace 1.11, written by Peter Selinger 2001-2013
</metadata>
<g transform="translate(0.000000,700.000000) scale(0.100000,-0.100000)"
fill="#000000" stroke="none">
<path d="M3250 6384 c-159 -19 -220 -28 -325 -49 -872 -175 -1624 -754 -2015
-1550 -126 -257 -193 -450 -245 -710 -44 -221 -50 -288 -50 -580 0 -292 9
-380 57 -605 233 -1089 1094 -1962 2180 -2209 245 -56 346 -66 648 -66 302 0
403 10 648 66 720 164 1356 606 1767 1228 520 789 622 1790 270 2667 -358 892
-1139 1551 -2075 1752 -206 44 -299 54 -565 57 -143 2 -276 1 -295 -1z m585
-1034 c300 -53 614 -197 850 -390 99 -81 270 -261 338 -357 410 -575 471
-1318 160 -1938 -97 -193 -182 -313 -333 -469 -214 -221 -460 -378 -745 -475
-477 -161 -996 -127 -1440 96 -304 153 -559 379 -741 658 -383 587 -404 1353
-55 1959 142 246 356 476 591 633 252 168 546 272 865 307 100 10 393 -3 510
-24z"/>
</g>
</svg>
